<?xml version="1.0" encoding="utf-8"?>
<!-- Generator: Adobe Illustrator 23.0.0, SVG Export Plug-In . SVG Version: 6.00 Build 0)  -->
<svg version="1.1" id="Capa_1" xmlns="http://www.w3.org/2000/svg" xmlns:xlink="http://www.w3.org/1999/xlink" x="0px" y="0px"
	 viewBox="0 0 600 600" style="enable-background:new 0 0 600 600;" xml:space="preserve">
<style type="text/css">
	.st0{fill:#FC4C02;}
	.st1{fill:#000200;}
</style>
<g>
	<path d="M156.4,427.7h12.1v13.7h13.2v-13.7h12.1v39.1h-12.1V451h-13.2v15.8h-12.1V427.7z"/>
	<path d="M199.2,427.7H236v9.7h-12.4v29.5h-12.1v-29.5h-12.3L199.2,427.7L199.2,427.7z"/>
	<path d="M238.6,427.7h36.8v9.7h-12.3v29.5H251v-29.5h-12.4V427.7z"/>
	<path d="M280.8,427.7h20.1c4.4,0,7.7,1,9.8,3.1c2.2,2.1,3.3,5,3.3,8.9c0,4-1.2,7-3.6,9.3c-2.4,2.2-6,3.3-10.9,3.3h-6.6v14.5h-12.1
		L280.8,427.7L280.8,427.7z M292.9,444.3h3c2.3,0,4-0.4,4.9-1.2c0.9-0.8,1.4-1.8,1.4-3.1c0-1.2-0.4-2.3-1.2-3.1
		c-0.8-0.9-2.4-1.3-4.6-1.3H293L292.9,444.3L292.9,444.3z"/>
	<path d="M355.5,459.5h-19.8v-8.9l19.8-23.5h9.5v24h4.9v8.4H365v7.3h-9.5V459.5z M355.5,451v-12.3L345,451H355.5z"/>
	<path d="M373.2,447.1c0-7.4,1.3-12.6,4-15.6s6.8-4.5,12.2-4.5c2.6,0,4.8,0.3,6.5,1s3.1,1.5,4.1,2.5c1.1,1,1.9,2.1,2.5,3.3
		c0.6,1.1,1.1,2.5,1.5,4c0.7,2.9,1.1,6,1.1,9.1c0,7.1-1.2,12.3-3.6,15.6c-2.4,3.3-6.5,4.9-12.4,4.9c-3.3,0-6-0.5-8-1.6
		s-3.7-2.6-5-4.6c-0.9-1.4-1.7-3.4-2.2-5.9C373.5,452.9,373.2,450.1,373.2,447.1z M384,447.1c0,5,0.4,8.4,1.3,10.2
		c0.9,1.8,2.2,2.7,3.8,2.7c1.1,0,2.1-0.4,2.9-1.2c0.8-0.8,1.4-2,1.8-3.7s0.6-4.3,0.6-7.8c0-5.2-0.4-8.7-1.3-10.5s-2.2-2.7-4-2.7
		s-3.1,0.9-3.9,2.7C384.4,438.8,384,442.2,384,447.1z"/>
	<path d="M428.4,459.5h-19.8v-8.9l19.8-23.5h9.5v24h4.9v8.4h-4.9v7.3h-9.5V459.5z M428.4,451v-12.3L417.9,451H428.4z"/>
</g>
<g>
	<path d="M257.3,102.2h12.1v23.3c0,2.3-0.4,4.5-1.1,6.5s-1.9,3.8-3.4,5.4s-3.2,2.6-4.8,3.2c-2.3,0.9-5.2,1.3-8.5,1.3
		c-1.9,0-4-0.1-6.2-0.4c-2.3-0.3-4.1-0.8-5.6-1.6s-2.9-1.9-4.1-3.4c-1.3-1.5-2.1-3-2.6-4.5c-0.7-2.5-1.1-4.7-1.1-6.6v-23.3h12.1V126
		c0,2.1,0.6,3.8,1.8,5s2.8,1.8,4.9,1.8c2.1,0,3.7-0.6,4.9-1.8c1.2-1.2,1.8-2.9,1.8-5v-23.8H257.3z"/>
	<path d="M277.3,102.2h20.1c4.4,0,7.7,1,9.8,3.1c2.2,2.1,3.3,5,3.3,8.9c0,4-1.2,7-3.6,9.3c-2.4,2.2-6,3.3-10.9,3.3h-6.6v14.5h-12.1
		L277.3,102.2L277.3,102.2z M289.4,118.9h3c2.3,0,4-0.4,4.9-1.2s1.4-1.8,1.4-3.1c0-1.2-0.4-2.3-1.2-3.1c-0.8-0.9-2.4-1.3-4.6-1.3
		h-3.4L289.4,118.9L289.4,118.9z"/>
	<path d="M314.7,128.4l11.5-0.7c0.2,1.9,0.8,3.3,1.5,4.3c1.2,1.6,3,2.4,5.3,2.4c1.7,0,3.1-0.4,4-1.2s1.4-1.7,1.4-2.8
		c0-1-0.4-1.9-1.3-2.7s-3-1.6-6.2-2.3c-5.3-1.2-9.1-2.8-11.3-4.8c-2.3-2-3.4-4.5-3.4-7.6c0-2,0.6-3.9,1.7-5.7
		c1.2-1.8,2.9-3.2,5.3-4.2c2.3-1,5.5-1.5,9.6-1.5c5,0,8.8,0.9,11.4,2.8s4.2,4.8,4.7,8.9l-11.4,0.7c-0.3-1.8-0.9-3-1.9-3.8
		s-2.3-1.2-4-1.2c-1.4,0-2.5,0.3-3.2,0.9s-1.1,1.3-1.1,2.2c0,0.6,0.3,1.2,0.9,1.7s1.9,1,4.1,1.4c5.3,1.1,9.1,2.3,11.4,3.5
		s3.9,2.6,5,4.3s1.6,3.7,1.6,5.8c0,2.5-0.7,4.8-2.1,6.9c-1.4,2.1-3.3,3.7-5.8,4.8s-5.6,1.6-9.4,1.6c-6.7,0-11.3-1.3-13.8-3.8
		C316.5,135.6,315,132.4,314.7,128.4z"/>
	<path d="M355.6,102.2h11.6v8.9L365,129h-7.2l-2.2-17.9L355.6,102.2L355.6,102.2z M356,131.8h10.8v9.6H356V131.8z"/>
</g>
<g>
	<path class="st0" d="M214,510.5v-2.7h8.3v2.7H214z"/>
	<path class="st0" d="M234.2,517.1V495h3l11.6,17.3V495h2.8v22.1h-3L237,499.7v17.4H234.2z"/>
	<path class="st0" d="M255.1,509.1c0-3,0.8-5.2,2.5-6.6c1.4-1.2,3.1-1.8,5-1.8c2.2,0,4,0.7,5.4,2.2c1.4,1.4,2.1,3.4,2.1,6
		c0,2.1-0.3,3.7-0.9,4.9s-1.5,2.1-2.7,2.7c-1.2,0.7-2.5,1-3.9,1c-2.2,0-4.1-0.7-5.4-2.2C255.8,513.9,255.1,511.8,255.1,509.1z
		 M257.9,509.1c0,2,0.4,3.6,1.3,4.6s2,1.5,3.4,1.5c1.3,0,2.5-0.5,3.4-1.5s1.3-2.6,1.3-4.7c0-2-0.4-3.5-1.3-4.5s-2-1.5-3.4-1.5
		s-2.5,0.5-3.4,1.5S257.9,507,257.9,509.1z"/>
	<path class="st0" d="M279.2,514.7l0.4,2.4c-0.8,0.2-1.4,0.2-2,0.2c-1,0-1.7-0.2-2.3-0.5c-0.5-0.3-0.9-0.7-1.1-1.2s-0.3-1.6-0.3-3.2
		v-9.2h-2v-2.1h2v-4l2.7-1.6v5.6h2.7v2.1h-2.7v9.4c0,0.8,0,1.3,0.1,1.5s0.3,0.4,0.5,0.5s0.5,0.2,0.9,0.2
		C278.3,514.8,278.7,514.7,279.2,514.7z"/>
	<path class="st0" d="M282.4,517.1V495h14.9v2.6h-12v6.8h10.4v2.6h-10.4v10L282.4,517.1L282.4,517.1z"/>
	<path class="st0" d="M299.7,509.1c0-3,0.8-5.2,2.5-6.6c1.4-1.2,3.1-1.8,5-1.8c2.2,0,4,0.7,5.4,2.2s2.1,3.4,2.1,6
		c0,2.1-0.3,3.7-0.9,4.9s-1.5,2.1-2.7,2.7c-1.2,0.7-2.5,1-3.9,1c-2.2,0-4.1-0.7-5.4-2.2S299.7,511.8,299.7,509.1z M302.5,509.1
		c0,2,0.4,3.6,1.3,4.6s2,1.5,3.4,1.5c1.3,0,2.5-0.5,3.4-1.5s1.3-2.6,1.3-4.7c0-2-0.4-3.5-1.3-4.5s-2-1.5-3.4-1.5s-2.5,0.5-3.4,1.5
		C303,505.5,302.5,507,302.5,509.1z"/>
	<path class="st0" d="M328.4,517.1v-2.4c-1.2,1.8-2.9,2.7-5.1,2.7c-0.9,0-1.8-0.2-2.6-0.5c-0.8-0.4-1.4-0.8-1.8-1.4
		c-0.4-0.5-0.7-1.2-0.8-2c-0.1-0.5-0.2-1.4-0.2-2.5v-9.9h2.7v8.9c0,1.4,0.1,2.4,0.2,2.9c0.2,0.7,0.5,1.3,1.1,1.7s1.2,0.6,2,0.6
		s1.6-0.2,2.3-0.6c0.7-0.4,1.2-1,1.5-1.7s0.4-1.8,0.4-3.1v-8.6h2.7v16L328.4,517.1L328.4,517.1z"/>
	<path class="st0" d="M335.1,517.1v-16h2.4v2.3c1.2-1.8,2.9-2.6,5.1-2.6c1,0,1.9,0.2,2.7,0.5s1.4,0.8,1.8,1.4s0.7,1.2,0.8,2
		c0.1,0.5,0.2,1.4,0.2,2.6v9.8h-2.7v-9.7c0-1.1-0.1-1.9-0.3-2.5c-0.2-0.5-0.6-1-1.1-1.3s-1.2-0.5-1.9-0.5c-1.2,0-2.2,0.4-3,1.1
		s-1.3,2.1-1.3,4.2v8.7H335.1z"/>
	<path class="st0" d="M362.6,517.1v-2c-1,1.6-2.5,2.4-4.5,2.4c-1.3,0-2.4-0.4-3.5-1.1c-1.1-0.7-1.9-1.7-2.5-2.9
		c-0.6-1.3-0.9-2.7-0.9-4.3c0-1.6,0.3-3,0.8-4.3s1.3-2.3,2.4-3s2.3-1,3.6-1c1,0,1.8,0.2,2.6,0.6c0.8,0.4,1.4,0.9,1.8,1.6V495h2.7
		v22.1H362.6z M354,509.1c0,2,0.4,3.6,1.3,4.6s1.9,1.5,3.1,1.5s2.2-0.5,3-1.5s1.2-2.4,1.2-4.4c0-2.2-0.4-3.8-1.3-4.8
		s-1.9-1.5-3.1-1.5s-2.2,0.5-3,1.5S354,507,354,509.1z"/>
	<path class="st0" d="M376.9,510.5v-2.7h8.3v2.7H376.9z"/>
</g>
<g>
	<path class="st0" d="M408.6,286.9c0,1.2-0.1,2.4-0.1,3.6c-0.1,5.5-0.2,11.2-1.5,15.8c-0.3,0.9-0.5,1.9-0.8,2.8
		c-0.1,0.3-0.2,0.6-0.3,1c-2.1,6.3-5,12.2-8.7,17.7c-4.3,6.4-9.4,12.7-15.8,19.3c-7.6,7.8-15.7,14.9-24.3,20.9
		c-23.4,16.4-47.9,29.3-57.5,34.2c-9.7-4.9-34.2-17.8-57.5-34.2c-8.6-6-16.7-13-24.3-20.9c-6.4-6.6-11.5-12.9-15.8-19.3
		c-3.8-5.8-6.9-12-9-18.7c-0.1-0.5-0.3-1-0.5-1.5c-0.1-0.4-0.3-0.9-0.4-1.3c-1.3-4.6-1.4-10.3-1.5-15.8c0-1.2-0.1-2.4-0.1-3.6
		c0-2,0-24.4,0-48.9v-5c0-20.7,0-42,0-53c35.8-6.9,72.4-10.4,109-10.4c36.5,0,73.1,3.5,109,10.4c0,11,0,32.3,0,53v5
		C408.6,262.5,408.6,284.9,408.6,286.9z"/>
	<g>
		<path class="st1" d="M398.5,274c-30.7-5.5-61.7-8.3-92.7-8.7l13.9,42.8h65.1l-52.7,38.3l7.1,21.8c4.1-2.6,8.2-5.4,12.3-8.2
			c7.9-5.6,15.5-12.1,22.5-19.4c5.8-6.1,10.6-11.9,14.5-17.7c3.8-5.8,6.8-12.2,8.7-19c1-3.7,1.2-8.8,1.2-13.7c0-0.6,0-1.2,0-1.8
			v-0.1c0-0.4,0-0.9,0-1.3v-0.1C398.5,285.7,398.5,281,398.5,274z"/>
		<path class="st1" d="M283,382.2c6.7,3.8,12.5,6.8,16.6,9c4.1-2.1,9.9-5.2,16.6-9l-16.6-12L283,382.2z"/>
		<path class="st1" d="M200.6,274v12.7c0,0.4,0,0.9,0,1.4c0,0,0,0.1,0,0.1c0,0.6,0,1.3,0.1,1.9c0.1,4.9,0.2,10,1.2,13.7
			c1.9,6.8,4.8,13.2,8.7,19c3.9,5.9,8.6,11.7,14.5,17.7c7,7.3,14.6,13.8,22.6,19.4c4.1,2.9,8.2,5.7,12.3,8.3l7.1-21.9l-52.7-38.3
			h65.1l13.9-42.8C262.3,265.7,231.2,268.6,200.6,274z"/>
		<path class="st1" d="M417.8,237.9v-5c0-29.6,0-60.3,0-60.6c-39-8.1-78.6-12.1-118.2-12.1c-39.6,0-79.2,4-118.2,12.1
			c0,0.3,0,31,0,60.6v5c0,25.7,0,49.1,0,49.1c0.2,7.1,0,14.9,1.9,21.7c0,0,0,0.1,0,0.1c0.1,0.4,0.2,0.9,0.4,1.3
			c2.4,8.1,6,15.6,10.6,22.7c4.9,7.4,10.7,14.2,16.8,20.6c7.8,8.1,16.4,15.5,25.6,22c30.1,21.2,61.8,36.4,62.9,37
			c1.1-0.5,32.8-15.8,62.9-37c9.2-6.5,17.8-13.9,25.6-22c6.2-6.4,11.9-13.2,16.8-20.6c4.5-6.8,7.9-14,10.3-21.7
			c0.1-0.3,0.2-0.5,0.2-0.8c0.1-0.5,0.3-1.1,0.5-1.6c1.9-6.9,1.7-14.6,1.9-21.7C417.9,287,417.8,263.6,417.8,237.9z M408.5,290.4
			c-0.1,5.5-0.2,11.2-1.5,15.8c-0.3,0.9-0.5,1.9-0.8,2.8c-0.1,0.3-0.2,0.6-0.3,1c-2.1,6.3-5,12.2-8.7,17.7
			c-4.3,6.4-9.4,12.7-15.8,19.3c-7.6,7.8-15.7,14.9-24.3,20.9c-23.4,16.4-47.9,29.3-57.5,34.2c-9.7-4.9-34.2-17.8-57.5-34.2
			c-8.6-6-16.7-13-24.3-20.9c-6.4-6.6-11.5-12.9-15.8-19.3c-3.8-5.8-6.9-12-9-18.7c-0.1-0.5-0.3-1-0.5-1.5c-0.1-0.4-0.3-0.9-0.4-1.3
			c-1.3-4.6-1.4-10.3-1.5-15.8c0-1.2-0.1-2.4-0.1-3.6c0-2,0-24.4,0-48.9v-5c0-20.7,0-42,0-53c35.8-6.9,72.4-10.4,109-10.4
			c36.5,0,73.1,3.5,109,10.4c0,11,0,32.3,0,53v5c0,24.5,0,47,0,48.9C408.6,288,408.5,289.2,408.5,290.4z"/>
		<path class="st1" d="M307.2,203.8v53.8c-2.6,0-5.1-0.1-7.7-0.1c-2.5,0-5.1,0-7.6,0.1v-53.8c2.5,0,5.1-0.1,7.6-0.1
			C302.1,203.7,304.7,203.7,307.2,203.8z"/>
		<path class="st1" d="M276.7,204.2v53.8c-5.1,0.2-10.2,0.5-15.2,0.8V205C266.6,204.6,271.6,204.4,276.7,204.2z"/>
		<path class="st1" d="M246.3,206.2V260c-5.1,0.5-10.2,1-15.2,1.6v-53.8C236.1,207.2,241.2,206.7,246.3,206.2z"/>
		<path class="st1" d="M215.8,209.9v53.8c-5.1,0.8-10.1,1.6-15.2,2.5c0-7.4,0-16.2,0-25.3c0-9.5,0-19.4,0-28.5
			C205.7,211.5,210.7,210.7,215.8,209.9z"/>
		<path class="st1" d="M337.7,205v53.8c-5.1-0.3-10.2-0.6-15.2-0.8v-53.8C327.5,204.4,332.6,204.6,337.7,205z"/>
		<path class="st1" d="M368.1,207.8v53.8c-5.1-0.6-10.1-1.2-15.2-1.6v-53.8C358,206.7,363.1,207.2,368.1,207.8z"/>
		<path class="st1" d="M398.5,266.2c-5.1-0.9-10.1-1.7-15.2-2.5v-53.8c5.1,0.8,10.1,1.6,15.2,2.5v28.4
			C398.5,250,398.5,258.8,398.5,266.2z"/>
	</g>
</g>
</svg>
