<?xml version="1.0" encoding="utf-8"?>
<!-- Generator: Adobe Illustrator 23.0.0, SVG Export Plug-In . SVG Version: 6.00 Build 0)  -->
<svg version="1.1" id="Capa_1" xmlns="http://www.w3.org/2000/svg" xmlns:xlink="http://www.w3.org/1999/xlink" x="0px" y="0px"
	 viewBox="0 0 600 600" style="enable-background:new 0 0 600 600;" xml:space="preserve">
<style type="text/css">
	.st0{fill:#FC4C02;}
	.st1{fill:#000200;}
</style>
<g>
	<path class="st0" d="M409,286.9c0,1.2-0.1,2.4-0.1,3.6c-0.1,5.5-0.2,11.2-1.5,15.8c-0.3,0.9-0.5,1.9-0.8,2.8
		c-0.1,0.3-0.2,0.6-0.3,1c-2.1,6.3-5,12.2-8.7,17.7c-4.3,6.4-9.4,12.7-15.8,19.3c-7.6,7.8-15.7,14.9-24.3,20.9
		c-23.4,16.4-47.9,29.3-57.5,34.2c-9.7-4.9-34.2-17.8-57.5-34.2c-8.6-6-16.7-13-24.3-20.9c-6.4-6.6-11.5-12.9-15.8-19.3
		c-3.8-5.8-6.9-12-9-18.7c-0.1-0.5-0.3-1-0.5-1.5c-0.1-0.4-0.3-0.9-0.4-1.3c-1.3-4.6-1.4-10.3-1.5-15.8c0-1.2-0.1-2.4-0.1-3.6
		c0-2,0-24.4,0-48.9v-5c0-20.7,0-42,0-53c35.8-6.9,72.4-10.4,109-10.4c36.5,0,73.1,3.5,109,10.4c0,11,0,32.3,0,53v5
		C409,262.5,409,284.9,409,286.9z"/>
	<g>
		<path class="st1" d="M398.9,274c-30.7-5.5-61.7-8.3-92.7-8.7l13.9,42.8h65.1l-52.7,38.3l7.1,21.8c4.1-2.6,8.2-5.4,12.3-8.2
			c7.9-5.6,15.5-12.1,22.5-19.4c5.8-6.1,10.6-11.9,14.5-17.7c3.8-5.8,6.8-12.2,8.7-19c1-3.7,1.2-8.8,1.2-13.7c0-0.6,0-1.2,0-1.8
			v-0.1c0-0.4,0-0.9,0-1.3v-0.1C398.9,285.7,398.9,281,398.9,274z"/>
		<path class="st1" d="M283.4,382.2c6.7,3.8,12.5,6.8,16.6,9c4.1-2.1,9.9-5.2,16.6-9l-16.6-12L283.4,382.2z"/>
		<path class="st1" d="M201,274v12.7c0,0.4,0,0.9,0,1.4v0.1c0,0.6,0,1.3,0.1,1.9c0.1,4.9,0.2,10,1.2,13.7c1.9,6.8,4.8,13.2,8.7,19
			c3.9,5.9,8.6,11.7,14.5,17.7c7,7.3,14.6,13.8,22.6,19.4c4.1,2.9,8.2,5.7,12.3,8.3l7.1-21.9L214.8,308h65.1l13.9-42.8
			C262.7,265.7,231.6,268.6,201,274z"/>
		<path class="st1" d="M418.2,237.9v-5c0-29.6,0-60.3,0-60.6c-39-8.1-78.6-12.1-118.2-12.1s-79.2,4-118.2,12.1c0,0.3,0,31,0,60.6v5
			c0,25.7,0,49.1,0,49.1c0.2,7.1,0,14.9,1.9,21.7v0.1c0.1,0.4,0.2,0.9,0.4,1.3c2.4,8.1,6,15.6,10.6,22.7
			c4.9,7.4,10.7,14.2,16.8,20.6c7.8,8.1,16.4,15.5,25.6,22c30.1,21.2,61.8,36.4,62.9,37c1.1-0.5,32.8-15.8,62.9-37
			c9.2-6.5,17.8-13.9,25.6-22c6.2-6.4,11.9-13.2,16.8-20.6c4.5-6.8,7.9-14,10.3-21.7c0.1-0.3,0.2-0.5,0.2-0.8
			c0.1-0.5,0.3-1.1,0.5-1.6c1.9-6.9,1.7-14.6,1.9-21.7C418.3,287,418.2,263.6,418.2,237.9z M408.9,290.4c-0.1,5.5-0.2,11.2-1.5,15.8
			c-0.3,0.9-0.5,1.9-0.8,2.8c-0.1,0.3-0.2,0.6-0.3,1c-2.1,6.3-5,12.2-8.7,17.7c-4.3,6.4-9.4,12.7-15.8,19.3
			c-7.6,7.8-15.7,14.9-24.3,20.9c-23.4,16.4-47.9,29.3-57.5,34.2c-9.7-4.9-34.2-17.8-57.5-34.2c-8.6-6-16.7-13-24.3-20.9
			c-6.4-6.6-11.5-12.9-15.8-19.3c-3.8-5.8-6.9-12-9-18.7c-0.1-0.5-0.3-1-0.5-1.5c-0.1-0.4-0.3-0.9-0.4-1.3
			c-1.3-4.6-1.4-10.3-1.5-15.8c0-1.2-0.1-2.4-0.1-3.6c0-2,0-24.4,0-48.9v-5c0-20.7,0-42,0-53c35.8-6.9,72.4-10.4,109-10.4
			c36.5,0,73.1,3.5,109,10.4c0,11,0,32.3,0,53v5c0,24.5,0,47,0,48.9C409,288,408.9,289.2,408.9,290.4z"/>
		<path class="st1" d="M307.6,203.8v53.8c-2.6,0-5.1-0.1-7.7-0.1c-2.5,0-5.1,0-7.6,0.1v-53.8c2.5,0,5.1-0.1,7.6-0.1
			C302.5,203.7,305.1,203.7,307.6,203.8z"/>
		<path class="st1" d="M277.1,204.2V258c-5.1,0.2-10.2,0.5-15.2,0.8V205C267,204.6,272,204.4,277.1,204.2z"/>
		<path class="st1" d="M246.7,206.2V260c-5.1,0.5-10.2,1-15.2,1.6v-53.8C236.5,207.2,241.6,206.7,246.7,206.2z"/>
		<path class="st1" d="M216.2,209.9v53.8c-5.1,0.8-10.1,1.6-15.2,2.5c0-7.4,0-16.2,0-25.3c0-9.5,0-19.4,0-28.5
			C206.1,211.5,211.1,210.7,216.2,209.9z"/>
		<path class="st1" d="M338.1,205v53.8c-5.1-0.3-10.2-0.6-15.2-0.8v-53.8C327.9,204.4,333,204.6,338.1,205z"/>
		<path class="st1" d="M368.5,207.8v53.8c-5.1-0.6-10.1-1.2-15.2-1.6v-53.8C358.4,206.7,363.5,207.2,368.5,207.8z"/>
		<path class="st1" d="M398.9,266.2c-5.1-0.9-10.1-1.7-15.2-2.5v-53.8c5.1,0.8,10.1,1.6,15.2,2.5v28.4
			C398.9,250,398.9,258.8,398.9,266.2z"/>
	</g>
</g>
<g>
	<path d="M120.2,430.6H135l7.7,13.4l7.5-13.4h14.7l-13.6,21.1l14.8,22.5H151l-8.6-14l-8.6,14h-15l15-22.7L120.2,430.6z"/>
	<path d="M160.9,459.8l12.8-0.8c0.3,2.1,0.8,3.7,1.7,4.8c1.4,1.8,3.4,2.6,5.9,2.6c1.9,0,3.4-0.5,4.4-1.4s1.6-1.9,1.6-3.1
		c0-1.1-0.5-2.1-1.5-3s-3.3-1.7-6.9-2.5c-5.9-1.3-10.1-3.1-12.6-5.3c-2.5-2.2-3.8-5-3.8-8.4c0-2.2,0.6-4.4,1.9-6.3
		c1.3-2,3.2-3.6,5.9-4.7c2.7-1.1,6.2-1.7,10.7-1.7c5.6,0,9.8,1,12.7,3.1s4.7,5.4,5.2,9.9l-12.7,0.7c-0.3-2-1-3.4-2.1-4.3
		s-2.6-1.3-4.5-1.3c-1.6,0-2.7,0.3-3.5,1c-0.8,0.7-1.2,1.5-1.2,2.4c0,0.7,0.3,1.3,1,1.9c0.6,0.6,2.1,1.1,4.5,1.6
		c5.9,1.3,10.1,2.5,12.6,3.8s4.4,2.9,5.6,4.8c1.2,1.9,1.7,4.1,1.7,6.4c0,2.8-0.8,5.4-2.3,7.7c-1.5,2.4-3.7,4.1-6.5,5.4
		c-2.8,1.2-6.3,1.8-10.5,1.8c-7.4,0-12.5-1.4-15.4-4.3C162.8,467.8,161.2,464.2,160.9,459.8z"/>
	<path d="M199.8,430.6h22.4c4.9,0,8.5,1.2,10.9,3.5s3.6,5.6,3.6,9.9c0,4.4-1.3,7.8-4,10.3c-2.6,2.5-6.7,3.7-12.1,3.7h-7.4v16.2
		h-13.5v-43.6H199.8z M213.3,449.2h3.3c2.6,0,4.4-0.5,5.5-1.4c1-0.9,1.6-2.1,1.6-3.5s-0.5-2.5-1.4-3.5s-2.6-1.4-5.1-1.4h-3.8v9.8
		H213.3z"/>
	<path d="M258.1,467h-15.3l-2.1,7.2H227l16.4-43.5H258l16.4,43.5h-14.1L258.1,467z M255.3,457.6l-4.8-15.7l-4.8,15.7H255.3z"/>
	<path d="M271.5,474.2v-43.5h22.4c4.2,0,7.3,0.4,9.5,1.1s4,2,5.3,4s2,4.3,2,7.1c0,2.4-0.5,4.5-1.5,6.3s-2.4,3.2-4.3,4.3
		c-1.1,0.7-2.7,1.3-4.7,1.7c1.6,0.5,2.8,1.1,3.5,1.6c0.5,0.4,1.2,1.1,2.2,2.3c0.9,1.2,1.6,2.1,1.9,2.7l6.5,12.6h-15.2l-7.2-13.3
		c-0.9-1.7-1.7-2.8-2.4-3.4c-1-0.7-2.1-1-3.3-1H285v17.7h-13.5V474.2z M285,448.3h5.7c0.6,0,1.8-0.2,3.6-0.6
		c0.9-0.2,1.6-0.6,2.2-1.4c0.6-0.7,0.8-1.6,0.8-2.5c0-1.4-0.4-2.5-1.3-3.2s-2.6-1.1-5-1.1h-6V448.3z"/>
	<path d="M311.4,430.6h13.5v16.5l14.1-16.5h17.9L341,447l16.6,27.1H341l-9.2-17.9l-7,7.3v10.6h-13.5v-43.5H311.4z"/>
	<path d="M394.4,467h-15.3l-2.1,7.2h-13.7l16.4-43.5h14.7l16.4,43.5h-14.1L394.4,467z M391.6,457.6l-4.8-15.7l-4.8,15.7H391.6z"/>
	<path d="M407.6,430.6H430c4.9,0,8.5,1.2,10.9,3.5s3.6,5.6,3.6,9.9c0,4.4-1.3,7.8-4,10.3c-2.6,2.5-6.7,3.7-12.1,3.7H421v16.2h-13.5
		v-43.6H407.6z M421.1,449.2h3.3c2.6,0,4.4-0.5,5.5-1.4c1-0.9,1.6-2.1,1.6-3.5s-0.5-2.5-1.4-3.5s-2.6-1.4-5.1-1.4h-3.8v9.8H421.1z"
		/>
	<path d="M444.3,430.6h22.4c4.9,0,8.5,1.2,10.9,3.5s3.6,5.6,3.6,9.9c0,4.4-1.3,7.8-4,10.3c-2.6,2.5-6.7,3.7-12.1,3.7h-7.4v16.2
		h-13.5v-43.6H444.3z M457.8,449.2h3.3c2.6,0,4.4-0.5,5.5-1.4c1-0.9,1.6-2.1,1.6-3.5s-0.5-2.5-1.4-3.5s-2.6-1.4-5.1-1.4h-3.8v9.8
		H457.8z"/>
</g>
<g>
	<path class="st0" d="M182.5,513.2v-1.9h5.8v1.9H182.5z"/>
	<path class="st0" d="M196.6,517.8v-15.3h11.1v1.8h-9v4.7h8.5v1.8h-8.5v5.2h9.4v1.8H196.6z"/>
	<path class="st0" d="M210.8,517.8v-15.3h2.1l8,12v-12h1.9v15.3h-2.1l-8-12v12H210.8z"/>
	<path class="st0" d="M243.1,512.4l2,0.5c-0.4,1.7-1.2,2.9-2.3,3.8c-1.1,0.9-2.5,1.3-4,1.3c-1.6,0-3-0.3-4-1c-1-0.7-1.8-1.6-2.4-2.9
		c-0.5-1.3-0.8-2.6-0.8-4.1c0-1.6,0.3-3,0.9-4.2c0.6-1.2,1.5-2.1,2.6-2.7s2.4-0.9,3.7-0.9c1.5,0,2.8,0.4,3.9,1.2s1.8,1.9,2.2,3.3
		l-2,0.5c-0.4-1.1-0.9-1.9-1.5-2.4s-1.5-0.8-2.5-0.8c-1.2,0-2.2,0.3-2.9,0.8c-0.8,0.6-1.3,1.3-1.7,2.3c-0.3,1-0.5,1.9-0.5,2.9
		c0,1.3,0.2,2.4,0.6,3.4c0.4,1,1,1.7,1.8,2.2s1.7,0.7,2.6,0.7c1.1,0,2.1-0.3,2.9-1C242.3,514.7,242.8,513.7,243.1,512.4z"/>
	<path class="st0" d="M247,510.3c0-2.5,0.7-4.5,2-6c1.4-1.4,3.1-2.2,5.3-2.2c1.4,0,2.7,0.3,3.8,1c1.1,0.7,2,1.6,2.6,2.8
		c0.6,1.2,0.9,2.6,0.9,4.1c0,1.6-0.3,2.9-0.9,4.2c-0.6,1.2-1.5,2.2-2.7,2.8s-2.4,0.9-3.7,0.9c-1.4,0-2.7-0.3-3.9-1
		c-1.1-0.7-2-1.6-2.6-2.8S247,511.7,247,510.3z M249.1,510.4c0,1.8,0.5,3.3,1.5,4.4c1,1.1,2.2,1.6,3.7,1.6c1.5,0,2.8-0.5,3.8-1.6
		c1-1.1,1.5-2.6,1.5-4.6c0-1.2-0.2-2.3-0.6-3.3c-0.4-0.9-1-1.6-1.8-2.2c-0.8-0.5-1.7-0.8-2.7-0.8c-1.4,0-2.7,0.5-3.7,1.5
		C249.6,506.4,249.1,508.1,249.1,510.4z"/>
	<path class="st0" d="M264.2,517.8v-15.3h2.1l8,12v-12h1.9v15.3h-2.1l-8-12v12H264.2z"/>
	<path class="st0" d="M279,512.9l1.9-0.2c0.1,0.8,0.3,1.4,0.6,1.9c0.3,0.5,0.8,0.9,1.5,1.2c0.7,0.3,1.5,0.5,2.3,0.5
		c0.8,0,1.5-0.1,2-0.3c0.6-0.2,1-0.5,1.3-0.9s0.4-0.8,0.4-1.3c0-0.5-0.1-0.9-0.4-1.3s-0.7-0.7-1.4-0.9c-0.4-0.2-1.3-0.4-2.7-0.7
		c-1.4-0.3-2.4-0.7-3-1c-0.7-0.4-1.3-0.9-1.6-1.4c-0.4-0.6-0.5-1.2-0.5-1.9c0-0.8,0.2-1.5,0.7-2.2c0.4-0.7,1.1-1.2,1.9-1.5
		c0.8-0.3,1.8-0.5,2.8-0.5c1.1,0,2.1,0.2,3,0.5c0.9,0.4,1.5,0.9,2,1.6c0.5,0.7,0.7,1.5,0.8,2.4l-1.9,0.1c-0.1-1-0.5-1.7-1.1-2.2
		c-0.6-0.5-1.5-0.7-2.7-0.7c-1.2,0-2.1,0.2-2.7,0.7c-0.6,0.4-0.8,1-0.8,1.6c0,0.5,0.2,1,0.6,1.4c0.4,0.4,1.4,0.7,3.1,1.1
		s2.8,0.7,3.4,1c0.9,0.4,1.5,0.9,2,1.6s0.6,1.4,0.6,2.2c0,0.8-0.2,1.6-0.7,2.3c-0.5,0.7-1.1,1.3-2,1.7c-0.9,0.4-1.9,0.6-3,0.6
		c-1.4,0-2.5-0.2-3.5-0.6c-0.9-0.4-1.7-1-2.2-1.8C279.3,514.8,279,513.9,279,512.9z"/>
	<path class="st0" d="M297.8,517.8v-13.5h-5v-1.8h12.1v1.8h-5.1v13.5H297.8z"/>
	<path class="st0" d="M307,517.8v-15.3h6.8c1.4,0,2.4,0.1,3.1,0.4c0.7,0.3,1.3,0.8,1.7,1.5c0.4,0.7,0.6,1.5,0.6,2.3
		c0,1.1-0.4,2-1.1,2.7c-0.7,0.7-1.8,1.2-3.3,1.4c0.5,0.3,0.9,0.5,1.2,0.8c0.6,0.5,1.2,1.2,1.7,2l2.7,4.2H318l-2-3.2
		c-0.6-0.9-1.1-1.6-1.5-2.1s-0.7-0.8-1-1s-0.6-0.3-0.9-0.4c-0.2,0-0.6-0.1-1.1-0.1h-2.3v6.8H307z M309.1,509.2h4.4
		c0.9,0,1.7-0.1,2.2-0.3c0.5-0.2,0.9-0.5,1.2-0.9c0.3-0.4,0.4-0.9,0.4-1.4c0-0.7-0.3-1.3-0.8-1.8c-0.5-0.5-1.4-0.7-2.5-0.7h-4.8
		V509.2z"/>
	<path class="st0" d="M332.5,502.5h2v8.8c0,1.5-0.2,2.8-0.5,3.7c-0.3,0.9-1,1.6-1.9,2.2s-2.1,0.9-3.6,0.9c-1.4,0-2.6-0.2-3.5-0.7
		s-1.6-1.2-2-2.1c-0.4-0.9-0.6-2.2-0.6-3.8v-8.8h2v8.8c0,1.3,0.1,2.3,0.4,2.9s0.7,1.1,1.3,1.5c0.6,0.3,1.3,0.5,2.2,0.5
		c1.5,0,2.6-0.3,3.2-1c0.6-0.7,1-2,1-3.9V502.5z"/>
	<path class="st0" d="M348.8,512.4l2,0.5c-0.4,1.7-1.2,2.9-2.3,3.8c-1.1,0.9-2.5,1.3-4,1.3c-1.7,0-3-0.3-4-1c-1-0.7-1.8-1.6-2.4-2.9
		c-0.5-1.3-0.8-2.6-0.8-4.1c0-1.6,0.3-3,0.9-4.2s1.5-2.1,2.6-2.7s2.4-0.9,3.7-0.9c1.5,0,2.8,0.4,3.9,1.2s1.8,1.9,2.2,3.3l-2,0.5
		c-0.4-1.1-0.9-1.9-1.5-2.4c-0.7-0.5-1.5-0.8-2.5-0.8c-1.2,0-2.2,0.3-2.9,0.8c-0.8,0.6-1.3,1.3-1.7,2.3c-0.3,1-0.5,1.9-0.5,2.9
		c0,1.3,0.2,2.4,0.6,3.4c0.4,1,1,1.7,1.8,2.2c0.8,0.5,1.7,0.7,2.6,0.7c1.1,0,2.1-0.3,2.9-1C348,514.7,348.5,513.7,348.8,512.4z"/>
	<path class="st0" d="M364.2,512.4l2,0.5c-0.4,1.7-1.2,2.9-2.3,3.8c-1.1,0.9-2.5,1.3-4,1.3c-1.7,0-3-0.3-4-1c-1-0.7-1.8-1.6-2.4-2.9
		c-0.5-1.3-0.8-2.6-0.8-4.1c0-1.6,0.3-3,0.9-4.2s1.5-2.1,2.6-2.7s2.4-0.9,3.7-0.9c1.5,0,2.8,0.4,3.9,1.2s1.8,1.9,2.2,3.3l-2,0.5
		c-0.4-1.1-0.9-1.9-1.5-2.4c-0.7-0.5-1.5-0.8-2.5-0.8c-1.2,0-2.2,0.3-2.9,0.8c-0.8,0.6-1.3,1.3-1.7,2.3c-0.3,1-0.5,1.9-0.5,2.9
		c0,1.3,0.2,2.4,0.6,3.4c0.4,1,1,1.7,1.8,2.2c0.8,0.5,1.7,0.7,2.6,0.7c1.1,0,2.1-0.3,2.9-1C363.4,514.7,364,513.7,364.2,512.4z"/>
	<path class="st0" d="M369.1,517.8v-15.3h2v15.3H369.1z"/>
	<path class="st0" d="M374.1,510.3c0-2.5,0.7-4.5,2-6s3.1-2.2,5.3-2.2c1.4,0,2.7,0.3,3.8,1c1.1,0.7,2,1.6,2.6,2.8
		c0.6,1.2,0.9,2.6,0.9,4.1c0,1.6-0.3,2.9-0.9,4.2c-0.6,1.2-1.5,2.2-2.7,2.8s-2.4,0.9-3.7,0.9c-1.4,0-2.7-0.3-3.9-1
		c-1.1-0.7-2-1.6-2.6-2.8C374.4,513,374.1,511.7,374.1,510.3z M376.2,510.4c0,1.8,0.5,3.3,1.5,4.4s2.2,1.6,3.7,1.6
		c1.5,0,2.8-0.5,3.8-1.6c1-1.1,1.5-2.6,1.5-4.6c0-1.2-0.2-2.3-0.6-3.3c-0.4-0.9-1-1.6-1.8-2.2s-1.7-0.8-2.7-0.8
		c-1.4,0-2.7,0.5-3.7,1.5C376.7,506.4,376.2,508.1,376.2,510.4z M380.1,501.6l1.4-2.9h2.5l-2.3,2.9H380.1z"/>
	<path class="st0" d="M391.3,517.8v-15.3h2.1l8,12v-12h1.9v15.3h-2.1l-8-12v12H391.3z"/>
	<path class="st0" d="M411.7,513.2v-1.9h5.8v1.9H411.7z"/>
</g>
</svg>
