<?xml version="1.0" encoding="utf-8"?>
<!-- Generator: Adobe Illustrator 23.0.0, SVG Export Plug-In . SVG Version: 6.00 Build 0)  -->
<svg version="1.1" id="Capa_1" xmlns="http://www.w3.org/2000/svg" xmlns:xlink="http://www.w3.org/1999/xlink" x="0px" y="0px"
	 viewBox="0 0 150 65" style="enable-background:new 0 0 150 65;" xml:space="preserve">
<style type="text/css">
	.st0{fill:#FC4C02;}
	.st1{fill:#000200;}
</style>
<g>
	<path class="st0" d="M25.8,33c0,0.1,0,0.3,0,0.4c0,0.6,0,1.2-0.2,1.7c0,0.1-0.1,0.2-0.1,0.3c0,0,0,0.1,0,0.1
		c-0.2,0.7-0.6,1.3-1,1.9c-0.5,0.7-1,1.4-1.7,2.1c-0.8,0.9-1.7,1.6-2.7,2.3c-2.6,1.8-5.3,3.2-6.3,3.8c-1.1-0.5-3.8-2-6.3-3.8
		c-0.9-0.7-1.8-1.4-2.7-2.3C4,38.9,3.5,38.2,3,37.5c-0.4-0.6-0.8-1.3-1-2.1c0-0.1,0-0.1-0.1-0.2c0,0,0-0.1,0-0.1
		c-0.1-0.5-0.2-1.1-0.2-1.7c0-0.1,0-0.3,0-0.4c0-0.2,0-2.7,0-5.4V27c0-2.3,0-4.6,0-5.8c3.9-0.8,8-1.1,12-1.1c4,0,8,0.4,12,1.1
		c0,1.2,0,3.6,0,5.8v0.6C25.8,30.3,25.8,32.8,25.8,33z"/>
	<g>
		<path class="st1" d="M24.6,31.6c-3.4-0.6-6.8-0.9-10.2-1l1.5,4.7h7.2l-5.8,4.2l0.8,2.4c0.5-0.3,0.9-0.6,1.4-0.9
			c0.9-0.6,1.7-1.3,2.5-2.1c0.6-0.7,1.2-1.3,1.6-1.9c0.4-0.6,0.7-1.3,1-2.1c0.1-0.4,0.1-1,0.1-1.5c0-0.1,0-0.1,0-0.2v0
			c0,0,0-0.1,0-0.1v0C24.6,32.8,24.6,32.3,24.6,31.6z"/>
		<path class="st1" d="M11.9,43.5c0.7,0.4,1.4,0.7,1.8,1c0.5-0.2,1.1-0.6,1.8-1l-1.8-1.3L11.9,43.5z"/>
		<path class="st1" d="M2.9,31.6V33c0,0,0,0.1,0,0.2v0c0,0.1,0,0.1,0,0.2c0,0.5,0,1.1,0.1,1.5c0.2,0.7,0.5,1.5,1,2.1
			c0.4,0.6,0.9,1.3,1.6,1.9C6.3,39.7,7.2,40.4,8,41c0.5,0.3,0.9,0.6,1.4,0.9l0.8-2.4l-5.8-4.2h7.2l1.5-4.7C9.6,30.6,6.2,31,2.9,31.6
			z"/>
		<path class="st1" d="M26.8,27.6V27c0-3.3,0-6.6,0-6.7c-4.3-0.9-8.7-1.3-13-1.3s-8.7,0.4-13,1.3c0,0,0,3.4,0,6.7v0.6
			c0,2.8,0,5.4,0,5.4c0,0.8,0,1.6,0.2,2.4v0c0,0,0,0.1,0,0.1c0.3,0.9,0.7,1.7,1.2,2.5c0.5,0.8,1.2,1.6,1.8,2.3
			c0.9,0.9,1.8,1.7,2.8,2.4c3.3,2.3,6.8,4,6.9,4.1c0.1-0.1,3.6-1.7,6.9-4.1c1-0.7,2-1.5,2.8-2.4c0.7-0.7,1.3-1.5,1.8-2.3
			c0.5-0.7,0.9-1.5,1.1-2.4c0,0,0-0.1,0-0.1c0-0.1,0-0.1,0.1-0.2c0.2-0.8,0.2-1.6,0.2-2.4C26.8,33,26.8,30.4,26.8,27.6z M25.7,33.4
			c0,0.6,0,1.2-0.2,1.7c0,0.1-0.1,0.2-0.1,0.3c0,0,0,0.1,0,0.1c-0.2,0.7-0.6,1.3-1,1.9c-0.5,0.7-1,1.4-1.7,2.1
			c-0.8,0.9-1.7,1.6-2.7,2.3c-2.6,1.8-5.3,3.2-6.3,3.8c-1.1-0.5-3.8-2-6.3-3.8c-0.9-0.7-1.8-1.4-2.7-2.3C4,38.9,3.5,38.2,3,37.5
			c-0.4-0.6-0.8-1.3-1-2.1c0-0.1,0-0.1-0.1-0.2c0,0,0-0.1,0-0.1c-0.1-0.5-0.2-1.1-0.2-1.7c0-0.1,0-0.3,0-0.4c0-0.2,0-2.7,0-5.4V27
			c0-2.3,0-4.6,0-5.8c3.9-0.8,8-1.1,12-1.1c4,0,8,0.4,12,1.1c0,1.2,0,3.6,0,5.8v0.6c0,2.7,0,5.2,0,5.4
			C25.8,33.1,25.7,33.2,25.7,33.4z"/>
		<path class="st1" d="M14.6,23.8v5.9c-0.3,0-0.6,0-0.8,0c-0.3,0-0.6,0-0.8,0v-5.9c0.3,0,0.6,0,0.8,0C14,23.8,14.3,23.8,14.6,23.8z"
			/>
		<path class="st1" d="M11.2,23.9v5.9c-0.6,0-1.1,0.1-1.7,0.1V24C10.1,23.9,10.7,23.9,11.2,23.9z"/>
		<path class="st1" d="M7.9,24.1V30c-0.6,0.1-1.1,0.1-1.7,0.2v-5.9C6.8,24.2,7.3,24.1,7.9,24.1z"/>
		<path class="st1" d="M4.5,24.5v5.9c-0.6,0.1-1.1,0.2-1.7,0.3c0-0.8,0-1.8,0-2.8c0-1,0-2.1,0-3.1C3.4,24.7,4,24.6,4.5,24.5z"/>
		<path class="st1" d="M17.9,24v5.9c-0.6,0-1.1-0.1-1.7-0.1v-5.9C16.8,23.9,17.4,23.9,17.9,24z"/>
		<path class="st1" d="M21.3,24.3v5.9c-0.6-0.1-1.1-0.1-1.7-0.2v-5.9C20.2,24.1,20.7,24.2,21.3,24.3z"/>
		<path class="st1" d="M24.6,30.7c-0.6-0.1-1.1-0.2-1.7-0.3v-5.9c0.6,0.1,1.1,0.2,1.7,0.3v3.1C24.6,28.9,24.6,29.9,24.6,30.7z"/>
	</g>
</g>
<path d="M33,47.8L33,47.8c-0.8,0-1.5-0.7-1.5-1.5V19.5c0-0.8,0.7-1.5,1.5-1.5h0c0.8,0,1.5,0.7,1.5,1.5v26.8
	C34.5,47.1,33.8,47.8,33,47.8z"/>
<g>
	<path d="M39.7,22.9h6.8l3.5,6.2l3.5-6.2h6.8l-6.2,9.7l6.8,10.3h-7l-4-6.4l-4,6.4h-6.9L46,32.5L39.7,22.9z"/>
	<path d="M58.7,36.3l5.9-0.4c0.1,1,0.4,1.7,0.8,2.2c0.6,0.8,1.5,1.2,2.7,1.2c0.9,0,1.6-0.2,2-0.6s0.7-0.9,0.7-1.4
		c0-0.5-0.2-1-0.7-1.4s-1.5-0.8-3.2-1.2c-2.7-0.6-4.7-1.4-5.8-2.4c-1.2-1-1.8-2.3-1.8-3.9c0-1,0.3-2,0.9-2.9s1.5-1.6,2.7-2.2
		c1.2-0.5,2.8-0.8,4.9-0.8c2.6,0,4.5,0.5,5.9,1.4c1.3,1,2.1,2.5,2.4,4.5l-5.8,0.3c-0.2-0.9-0.5-1.6-1-2s-1.2-0.6-2.1-0.6
		c-0.7,0-1.3,0.2-1.6,0.5c-0.4,0.3-0.5,0.7-0.5,1.1c0,0.3,0.2,0.6,0.5,0.9c0.3,0.3,1,0.5,2.1,0.7c2.7,0.6,4.6,1.2,5.8,1.8
		c1.2,0.6,2,1.3,2.6,2.2c0.5,0.9,0.8,1.9,0.8,3c0,1.3-0.4,2.5-1.1,3.6c-0.7,1.1-1.7,1.9-3,2.5S70,43.3,68,43.3c-3.4,0-5.8-0.7-7.1-2
		S58.9,38.3,58.7,36.3z"/>
	<path d="M76.9,22.9h10.3c2.2,0,3.9,0.5,5,1.6s1.7,2.6,1.7,4.6c0,2-0.6,3.6-1.8,4.7c-1.2,1.1-3.1,1.7-5.6,1.7h-3.4v7.4h-6.2V22.9z
		 M83.1,31.4h1.5c1.2,0,2-0.2,2.5-0.6c0.5-0.4,0.7-0.9,0.7-1.6c0-0.6-0.2-1.2-0.6-1.6S86,27,84.9,27h-1.8V31.4z"/>
	<path d="M104,39.6h-7l-1,3.3h-6.3l7.5-20h6.8l7.5,20H105L104,39.6z M102.7,35.3l-2.2-7.2l-2.2,7.2H102.7z"/>
	<path d="M110.5,42.9v-20h10.3c1.9,0,3.4,0.2,4.4,0.5s1.8,0.9,2.4,1.8s0.9,2,0.9,3.2c0,1.1-0.2,2.1-0.7,2.9c-0.5,0.8-1.1,1.5-2,2
		c-0.5,0.3-1.3,0.6-2.2,0.8c0.7,0.2,1.3,0.5,1.6,0.7c0.2,0.2,0.6,0.5,1,1.1c0.4,0.5,0.7,1,0.9,1.2l3,5.8h-7l-3.3-6.1
		c-0.4-0.8-0.8-1.3-1.1-1.5c-0.4-0.3-1-0.5-1.5-0.5h-0.5v8.1H110.5z M116.7,31h2.6c0.3,0,0.8-0.1,1.6-0.3c0.4-0.1,0.7-0.3,1-0.6
		c0.3-0.3,0.4-0.7,0.4-1.2c0-0.6-0.2-1.1-0.6-1.5c-0.4-0.3-1.2-0.5-2.3-0.5h-2.7V31z"/>
	<path d="M129.1,22.9h6.2v7.6l6.5-7.6h8.2l-7.3,7.6l7.6,12.5h-7.6l-4.2-8.2l-3.2,3.4v4.9h-6.2V22.9z"/>
</g>
</svg>
