<?xml version="1.0" encoding="utf-8"?>
<!-- Generator: Adobe Illustrator 23.0.0, SVG Export Plug-In . SVG Version: 6.00 Build 0)  -->
<svg version="1.1" id="Capa_1" xmlns="http://www.w3.org/2000/svg" xmlns:xlink="http://www.w3.org/1999/xlink" x="0px" y="0px"
	 viewBox="0 0 720 720" style="enable-background:new 0 0 720 720;" xml:space="preserve">
<style type="text/css">
	.st0{fill:#FC4C02;}
	.st1{fill:#D88061;}
</style>
<rect class="st0" width="720" height="720"/>
<g>
	<circle class="st1" cx="360" cy="253.4" r="102.8"/>
	<path class="st1" d="M556.8,442.2c-1.5,3.6-2.9,7.4-4.3,11.4C517.8,524.9,444.6,574,360,574c-85.1,0-158.5-49.6-193-121.5
		c-1.2-3.6-2.5-7.1-3.9-10.6c22.6-41.8,102.1-72.8,196.8-72.8C454.7,369.1,534.4,400.2,556.8,442.2z"/>
	<path class="st1" d="M360,111c-137.5,0-249,111.5-249,249c0,33.9,6.8,66.2,19,95.6c23.9,57.3,68.6,103.8,124.6,130.1
		c32,15,67.7,23.3,105.3,23.3c37.8,0,73.6-8.4,105.7-23.5C521.5,559.3,566,513,589.8,456c12.3-29.5,19.2-61.9,19.2-96
		C609,222.5,497.5,111,360,111z M570.9,448c-21.9,52.4-62.7,94.8-113.9,118.9c-29.4,13.8-62.3,21.5-96.9,21.5
		c-34.5,0-67.3-7.7-96.6-21.4C211.9,543,170.9,500.3,149,447.7c-11.2-27-17.5-56.6-17.5-87.7c0-126.2,102.3-228.4,228.4-228.4
		S588.4,233.8,588.4,360C588.4,391.2,582.2,420.9,570.9,448z"/>
</g>
</svg>
