<?xml version="1.0" encoding="utf-8"?>
<!-- Generator: Adobe Illustrator 23.0.0, SVG Export Plug-In . SVG Version: 6.00 Build 0)  -->
<svg version="1.1" id="Capa_1" xmlns="http://www.w3.org/2000/svg" xmlns:xlink="http://www.w3.org/1999/xlink" x="0px" y="0px"
	 viewBox="0 0 720 720" style="enable-background:new 0 0 720 720;" xml:space="preserve">
<g>
	<path d="M360,33C271.6,33,200,104.6,200,192.9S271.6,352.9,360,352.9s159.9-71.6,159.9-159.9S448.3,33,360,33z M360,300.1
		c-59.1,0-107.2-48.1-107.2-107.2c0-59.1,48.1-107.2,107.2-107.2s107.2,48.1,107.2,107.2C467.1,252,419.1,300.1,360,300.1z"/>
	<path d="M360.1,372.9c-147.4,0-271,48.2-306.2,113.2c2.2,5.4,4.2,10.9,6,16.4c53.7,111.8,167.8,188.9,300.2,188.9
		c131.5,0,245.4-76.3,299.4-187.2c2.2-6.2,4.3-12.1,6.7-17.7C631.3,421.3,507.3,372.9,360.1,372.9z M510.5,595
		c-44.9,28.6-96.9,43.7-150.4,43.7c-53.8,0-106.1-15.3-151.1-44.2c-39.5-25.3-71.9-60-94.4-100.9c15.4-14.3,39.6-28.1,68.8-39.1
		c49.6-18.6,112.3-28.9,176.6-28.9c64.3,0,127,10.3,176.5,29c29.3,11,53.4,25,68.8,39.3C582.9,534.9,550.3,569.7,510.5,595z"/>
</g>
</svg>
